<svg width="182" height="28" viewBox="0 0 182 28" fill="none" xmlns="http://www.w3.org/2000/svg">
<path d="M52.34 14.74V12.62H58.26C58.9667 12.62 59.5267 12.4333 59.94 12.06C60.3533 11.6733 60.56 11.14 60.56 10.46C60.56 9.75333 60.3533 9.21333 59.94 8.84C59.5267 8.46667 58.9667 8.28 58.26 8.28H52.66V18.94H50V6H58.02C58.74 6 59.4133 6.08667 60.04 6.26C60.68 6.43333 61.2333 6.7 61.7 7.06C62.18 7.42 62.5533 7.88 62.82 8.44C63.0867 9 63.22 9.67333 63.22 10.46C63.22 11.2333 63.0867 11.8933 62.82 12.44C62.5533 12.9867 62.18 13.4333 61.7 13.78C61.2333 14.1133 60.68 14.36 60.04 14.52C59.4133 14.6667 58.74 14.74 58.02 14.74H52.34Z" fill="black"/>
<path d="M69.8916 19.16C68.9049 19.16 68.0049 18.9467 67.1916 18.52C66.3916 18.08 65.7516 17.4733 65.2716 16.7C64.8049 15.9133 64.5716 15.0067 64.5716 13.98C64.5716 12.9267 64.8116 12.0133 65.2916 11.24C65.7716 10.4667 66.4182 9.86667 67.2316 9.44C68.0582 9 68.9916 8.78 70.0316 8.78C71.1782 8.78 72.0982 9.01333 72.7916 9.48C73.4982 9.93333 74.0116 10.5533 74.3316 11.34C74.6516 12.1267 74.8116 13.0067 74.8116 13.98C74.8116 14.5667 74.7182 15.1667 74.5316 15.78C74.3449 16.38 74.0582 16.94 73.6716 17.46C73.2849 17.9667 72.7782 18.38 72.1516 18.7C71.5249 19.0067 70.7716 19.16 69.8916 19.16ZM70.7316 17.16C71.5182 17.16 72.1982 17.0267 72.7716 16.76C73.3449 16.4933 73.7849 16.12 74.0916 15.64C74.3982 15.16 74.5516 14.6067 74.5516 13.98C74.5516 13.3 74.3916 12.7267 74.0716 12.26C73.7649 11.78 73.3249 11.42 72.7516 11.18C72.1916 10.9267 71.5182 10.8 70.7316 10.8C69.6249 10.8 68.7649 11.0933 68.1516 11.68C67.5382 12.2533 67.2316 13.02 67.2316 13.98C67.2316 14.62 67.3782 15.18 67.6716 15.66C67.9649 16.1267 68.3716 16.4933 68.8916 16.76C69.4249 17.0267 70.0382 17.16 70.7316 17.16ZM74.5516 9H77.1516V18.94H74.7316C74.7316 18.94 74.7116 18.8133 74.6716 18.56C74.6449 18.2933 74.6182 17.96 74.5916 17.56C74.5649 17.16 74.5516 16.7667 74.5516 16.38V9Z" fill="black"/>
<path d="M78.6047 9H81.3647L85.6647 18.54L83.4247 18.94L78.6047 9ZM90.7647 9L83.8847 22.94H81.1847L84.1247 17.46L87.9847 9H90.7647Z" fill="black"/>
<path d="M99.7423 14.74V12.62H105.662C106.369 12.62 106.929 12.4333 107.342 12.06C107.756 11.6733 107.962 11.14 107.962 10.46C107.962 9.75333 107.756 9.21333 107.342 8.84C106.929 8.46667 106.369 8.28 105.662 8.28H100.062V18.94H97.4023V6H105.422C106.142 6 106.816 6.08667 107.442 6.26C108.082 6.43333 108.636 6.7 109.102 7.06C109.582 7.42 109.956 7.88 110.222 8.44C110.489 9 110.622 9.67333 110.622 10.46C110.622 11.2333 110.489 11.8933 110.222 12.44C109.956 12.9867 109.582 13.4333 109.102 13.78C108.636 14.1133 108.082 14.36 107.442 14.52C106.816 14.6667 106.142 14.74 105.422 14.74H99.7423Z" fill="black"/>
<path d="M121.514 15.64H124.034C123.927 16.32 123.641 16.9267 123.174 17.46C122.721 17.9933 122.101 18.4133 121.314 18.72C120.527 19.0267 119.567 19.18 118.434 19.18C117.167 19.18 116.047 18.98 115.074 18.58C114.101 18.1667 113.341 17.5733 112.794 16.8C112.247 16.0267 111.974 15.0933 111.974 14C111.974 12.9067 112.241 11.9733 112.774 11.2C113.307 10.4133 114.047 9.81333 114.994 9.4C115.954 8.98667 117.074 8.78 118.354 8.78C119.661 8.78 120.747 8.98667 121.614 9.4C122.481 9.81333 123.121 10.44 123.534 11.28C123.961 12.1067 124.141 13.1667 124.074 14.46H114.594C114.661 14.9667 114.847 15.4267 115.154 15.84C115.474 16.2533 115.901 16.58 116.434 16.82C116.981 17.06 117.627 17.18 118.374 17.18C119.201 17.18 119.887 17.04 120.434 16.76C120.994 16.4667 121.354 16.0933 121.514 15.64ZM118.234 10.76C117.274 10.76 116.494 10.9733 115.894 11.4C115.294 11.8133 114.907 12.3267 114.734 12.94H121.494C121.427 12.2733 121.107 11.7467 120.534 11.36C119.974 10.96 119.207 10.76 118.234 10.76Z" fill="black"/>
<path d="M126.009 9H128.609V18.94H126.009V9ZM132.429 11.14C131.682 11.14 131.035 11.2867 130.489 11.58C129.942 11.86 129.502 12.2067 129.169 12.62C128.835 13.0333 128.602 13.4333 128.469 13.82L128.449 12.72C128.462 12.56 128.515 12.3267 128.609 12.02C128.702 11.7 128.842 11.36 129.029 11C129.215 10.6267 129.462 10.2733 129.769 9.94C130.075 9.59333 130.449 9.31333 130.889 9.1C131.329 8.88667 131.842 8.78 132.429 8.78V11.14Z" fill="black"/>
<path d="M151.08 13.22V6H153.74V13.5C153.74 14.3533 153.613 15.1 153.36 15.74C153.12 16.38 152.773 16.92 152.32 17.36C151.867 17.8 151.333 18.16 150.72 18.44C150.12 18.7067 149.46 18.9 148.74 19.02C148.033 19.14 147.287 19.2 146.5 19.2C145.687 19.2 144.913 19.14 144.18 19.02C143.447 18.9 142.773 18.7067 142.16 18.44C141.56 18.16 141.04 17.8 140.6 17.36C140.16 16.92 139.813 16.38 139.56 15.74C139.32 15.1 139.2 14.3533 139.2 13.5V6H141.86V13.22C141.86 14.2333 142.06 15.0067 142.46 15.54C142.86 16.06 143.407 16.42 144.1 16.62C144.807 16.8067 145.607 16.9 146.5 16.9C147.367 16.9 148.14 16.8067 148.82 16.62C149.513 16.42 150.06 16.06 150.46 15.54C150.873 15.0067 151.08 14.2333 151.08 13.22Z" fill="black"/>
<path d="M156.077 15.64H158.477C158.624 16.0933 158.924 16.4667 159.377 16.76C159.844 17.04 160.451 17.18 161.197 17.18C161.704 17.18 162.097 17.1333 162.377 17.04C162.657 16.9467 162.851 16.8133 162.957 16.64C163.064 16.4533 163.117 16.2467 163.117 16.02C163.117 15.74 163.031 15.5267 162.857 15.38C162.684 15.22 162.417 15.0933 162.057 15C161.697 14.9067 161.237 14.82 160.677 14.74C160.117 14.6467 159.577 14.5333 159.057 14.4C158.537 14.2667 158.077 14.0933 157.677 13.88C157.277 13.6533 156.957 13.3733 156.717 13.04C156.491 12.6933 156.377 12.2733 156.377 11.78C156.377 11.3 156.491 10.8733 156.717 10.5C156.957 10.1267 157.284 9.81333 157.697 9.56C158.124 9.30667 158.617 9.11333 159.177 8.98C159.751 8.84667 160.364 8.78 161.017 8.78C162.004 8.78 162.824 8.92667 163.477 9.22C164.131 9.5 164.617 9.9 164.937 10.42C165.271 10.9267 165.437 11.5133 165.437 12.18H163.137C163.031 11.6867 162.817 11.3333 162.497 11.12C162.177 10.8933 161.684 10.78 161.017 10.78C160.364 10.78 159.871 10.88 159.537 11.08C159.204 11.28 159.037 11.5533 159.037 11.9C159.037 12.18 159.137 12.4 159.337 12.56C159.551 12.7067 159.857 12.8267 160.257 12.92C160.671 13.0133 161.184 13.1133 161.797 13.22C162.317 13.3267 162.811 13.4467 163.277 13.58C163.757 13.7133 164.184 13.8867 164.557 14.1C164.931 14.3 165.224 14.5733 165.437 14.92C165.664 15.2533 165.777 15.68 165.777 16.2C165.777 16.84 165.591 17.38 165.217 17.82C164.857 18.26 164.337 18.6 163.657 18.84C162.977 19.0667 162.164 19.18 161.217 19.18C160.377 19.18 159.651 19.0933 159.037 18.92C158.437 18.7333 157.937 18.5 157.537 18.22C157.137 17.9267 156.824 17.62 156.597 17.3C156.384 16.9667 156.237 16.6533 156.157 16.36C156.077 16.0667 156.051 15.8267 156.077 15.64Z" fill="black"/>
<path d="M176.826 15.64H179.346C179.24 16.32 178.953 16.9267 178.486 17.46C178.033 17.9933 177.413 18.4133 176.626 18.72C175.84 19.0267 174.88 19.18 173.746 19.18C172.48 19.18 171.36 18.98 170.386 18.58C169.413 18.1667 168.653 17.5733 168.106 16.8C167.56 16.0267 167.286 15.0933 167.286 14C167.286 12.9067 167.553 11.9733 168.086 11.2C168.62 10.4133 169.36 9.81333 170.306 9.4C171.266 8.98667 172.386 8.78 173.666 8.78C174.973 8.78 176.06 8.98667 176.926 9.4C177.793 9.81333 178.433 10.44 178.846 11.28C179.273 12.1067 179.453 13.1667 179.386 14.46H169.906C169.973 14.9667 170.16 15.4267 170.466 15.84C170.786 16.2533 171.213 16.58 171.746 16.82C172.293 17.06 172.94 17.18 173.686 17.18C174.513 17.18 175.2 17.04 175.746 16.76C176.306 16.4667 176.666 16.0933 176.826 15.64ZM173.546 10.76C172.586 10.76 171.806 10.9733 171.206 11.4C170.606 11.8133 170.22 12.3267 170.046 12.94H176.806C176.74 12.2733 176.42 11.7467 175.846 11.36C175.286 10.96 174.52 10.76 173.546 10.76Z" fill="black"/>
<path d="M28.3465 18.9627C30.7574 18.9913 33.0903 18.1051 34.8797 16.4811C36.6691 14.8571 37.7833 12.6147 37.9999 10.2015C37.9999 9.97761 37.9999 9.76119 37.9999 9.54478C38.0222 3.64179 33.6484 0 26.6608 0H8L10.7252 5H26.3193C30.0321 5 31.8885 6.68657 31.8885 9.58209C31.8885 12.4776 30.0173 14.1642 26.3193 14.1642H23.8688L26.4603 19L28.3465 18.9627Z" fill="black"/>
<path d="M30 28H23.7786L16 14H22.2214L30 28Z" fill="#7A83FF"/>
<path d="M21 28H14.9035L0 0H6.09654L21 28Z" fill="black"/>
</svg>
