<svg width="1440" height="1440" viewBox="0 0 1440 1440" fill="none" xmlns="http://www.w3.org/2000/svg">
<mask id="mask0_4_457" style="mask-type:alpha" maskUnits="userSpaceOnUse" x="0" y="0" width="1440" height="1440">
<rect width="1440" height="1440" fill="url(#paint0_radial_4_457)"/>
</mask>
<g mask="url(#mask0_4_457)">
<path d="M0.25 -15.8455L60 -45.7205L119.75 -15.8455V43.8455L60 73.7205L0.25 43.8455V-15.8455Z" fill="white" stroke="#DCDAE2" stroke-width="0.5"/>
<path d="M120.25 -15.8455L180 -45.7205L239.75 -15.8455V43.8455L180 73.7205L120.25 43.8455V-15.8455Z" fill="white" stroke="#DCDAE2" stroke-width="0.5"/>
<path d="M240.25 -15.8455L300 -45.7205L359.75 -15.8455V43.8455L300 73.7205L240.25 43.8455V-15.8455Z" fill="white" stroke="#DCDAE2" stroke-width="0.5"/>
<path d="M360.25 -15.8455L420 -45.7205L479.75 -15.8455V43.8455L420 73.7205L360.25 43.8455V-15.8455Z" fill="white" stroke="#DCDAE2" stroke-width="0.5"/>
<path d="M480.25 -15.8455L540 -45.7205L599.75 -15.8455V43.8455L540 73.7205L480.25 43.8455V-15.8455Z" fill="white" stroke="#DCDAE2" stroke-width="0.5"/>
<path d="M600.25 -15.8455L660 -45.7205L719.75 -15.8455V43.8455L660 73.7205L600.25 43.8455V-15.8455Z" fill="white" stroke="#DCDAE2" stroke-width="0.5"/>
<path d="M720.25 -15.8455L780 -45.7205L839.75 -15.8455V43.8455L780 73.7205L720.25 43.8455V-15.8455Z" fill="white" stroke="#DCDAE2" stroke-width="0.5"/>
<path d="M840.25 -15.8455L900 -45.7205L959.75 -15.8455V43.8455L900 73.7205L840.25 43.8455V-15.8455Z" fill="white" stroke="#DCDAE2" stroke-width="0.5"/>
<path d="M960.25 -15.8455L1020 -45.7205L1079.75 -15.8455V43.8455L1020 73.7205L960.25 43.8455V-15.8455Z" fill="white" stroke="#DCDAE2" stroke-width="0.5"/>
<path d="M1080.25 -15.8455L1140 -45.7205L1199.75 -15.8455V43.8455L1140 73.7205L1080.25 43.8455V-15.8455Z" fill="white" stroke="#DCDAE2" stroke-width="0.5"/>
<path d="M1200.25 -15.8455L1260 -45.7205L1319.75 -15.8455V43.8455L1260 73.7205L1200.25 43.8455V-15.8455Z" fill="white" stroke="#DCDAE2" stroke-width="0.5"/>
<path d="M1320.25 -15.8455L1380 -45.7205L1439.75 -15.8455V43.8455L1380 73.7205L1320.25 43.8455V-15.8455Z" fill="white" stroke="#DCDAE2" stroke-width="0.5"/>
<path d="M-59.75 74.1545L0 44.2795L59.75 74.1545V133.845L0 163.72L-59.75 133.845V74.1545Z" fill="white" stroke="#DCDAE2" stroke-width="0.5"/>
<path d="M60.25 74.1545L120 44.2795L179.75 74.1545V133.845L120 163.72L60.25 133.845V74.1545Z" fill="white" stroke="#DCDAE2" stroke-width="0.5"/>
<path d="M180.25 74.1545L240 44.2795L299.75 74.1545V133.845L240 163.72L180.25 133.845V74.1545Z" fill="white" stroke="#DCDAE2" stroke-width="0.5"/>
<path d="M300.25 74.1545L360 44.2795L419.75 74.1545V133.845L360 163.72L300.25 133.845V74.1545Z" fill="white" stroke="#DCDAE2" stroke-width="0.5"/>
<path d="M420.25 74.1545L480 44.2795L539.75 74.1545V133.845L480 163.72L420.25 133.845V74.1545Z" fill="white" stroke="#DCDAE2" stroke-width="0.5"/>
<path d="M540.25 74.1545L600 44.2795L659.75 74.1545V133.845L600 163.72L540.25 133.845V74.1545Z" fill="white" stroke="#DCDAE2" stroke-width="0.5"/>
<path d="M660.25 74.1545L720 44.2795L779.75 74.1545V133.845L720 163.72L660.25 133.845V74.1545Z" fill="white" stroke="#DCDAE2" stroke-width="0.5"/>
<path d="M780.25 74.1545L840 44.2795L899.75 74.1545V133.845L840 163.72L780.25 133.845V74.1545Z" fill="white" stroke="#DCDAE2" stroke-width="0.5"/>
<path d="M900.25 74.1545L960 44.2795L1019.75 74.1545V133.845L960 163.72L900.25 133.845V74.1545Z" fill="white" stroke="#DCDAE2" stroke-width="0.5"/>
<path d="M1020.25 74.1545L1080 44.2795L1139.75 74.1545V133.845L1080 163.72L1020.25 133.845V74.1545Z" fill="white" stroke="#DCDAE2" stroke-width="0.5"/>
<path d="M1140.25 74.1545L1200 44.2795L1259.75 74.1545V133.845L1200 163.72L1140.25 133.845V74.1545Z" fill="white" stroke="#DCDAE2" stroke-width="0.5"/>
<path d="M1260.25 74.1545L1320 44.2795L1379.75 74.1545V133.845L1320 163.72L1260.25 133.845V74.1545Z" fill="white" stroke="#DCDAE2" stroke-width="0.5"/>
<path d="M1380.25 74.1545L1440 44.2795L1499.75 74.1545V133.845L1440 163.72L1380.25 133.845V74.1545Z" fill="white" stroke="#DCDAE2" stroke-width="0.5"/>
<path d="M0.25 164.155L60 134.28L119.75 164.155V223.845L60 253.72L0.25 223.845V164.155Z" fill="white" stroke="#DCDAE2" stroke-width="0.5"/>
<path d="M120.25 164.155L180 134.28L239.75 164.155V223.845L180 253.72L120.25 223.845V164.155Z" fill="white" stroke="#DCDAE2" stroke-width="0.5"/>
<path d="M240.25 164.155L300 134.28L359.75 164.155V223.845L300 253.72L240.25 223.845V164.155Z" fill="white" stroke="#DCDAE2" stroke-width="0.5"/>
<path d="M360.25 164.155L420 134.28L479.75 164.155V223.845L420 253.72L360.25 223.845V164.155Z" fill="white" stroke="#DCDAE2" stroke-width="0.5"/>
<path d="M480.25 164.155L540 134.28L599.75 164.155V223.845L540 253.72L480.25 223.845V164.155Z" fill="white" stroke="#DCDAE2" stroke-width="0.5"/>
<path d="M600.25 164.155L660 134.28L719.75 164.155V223.845L660 253.72L600.25 223.845V164.155Z" fill="white" stroke="#DCDAE2" stroke-width="0.5"/>
<path d="M720.25 164.155L780 134.28L839.75 164.155V223.845L780 253.72L720.25 223.845V164.155Z" fill="white" stroke="#DCDAE2" stroke-width="0.5"/>
<path d="M840.25 164.155L900 134.28L959.75 164.155V223.845L900 253.72L840.25 223.845V164.155Z" fill="white" stroke="#DCDAE2" stroke-width="0.5"/>
<path d="M960.25 164.155L1020 134.28L1079.75 164.155V223.845L1020 253.72L960.25 223.845V164.155Z" fill="white" stroke="#DCDAE2" stroke-width="0.5"/>
<path d="M1080.25 164.155L1140 134.28L1199.75 164.155V223.845L1140 253.72L1080.25 223.845V164.155Z" fill="white" stroke="#DCDAE2" stroke-width="0.5"/>
<path d="M1200.25 164.155L1260 134.28L1319.75 164.155V223.845L1260 253.72L1200.25 223.845V164.155Z" fill="white" stroke="#DCDAE2" stroke-width="0.5"/>
<path d="M1320.25 164.155L1380 134.28L1439.75 164.155V223.845L1380 253.72L1320.25 223.845V164.155Z" fill="white" stroke="#DCDAE2" stroke-width="0.5"/>
<path d="M-59.75 254.155L0 224.28L59.75 254.155V313.845L0 343.72L-59.75 313.845V254.155Z" fill="white" stroke="#DCDAE2" stroke-width="0.5"/>
<path d="M60.25 254.155L120 224.28L179.75 254.155V313.845L120 343.72L60.25 313.845V254.155Z" fill="white" stroke="#DCDAE2" stroke-width="0.5"/>
<path d="M180.25 254.155L240 224.28L299.75 254.155V313.845L240 343.72L180.25 313.845V254.155Z" fill="white" stroke="#DCDAE2" stroke-width="0.5"/>
<path d="M300.25 254.155L360 224.28L419.75 254.155V313.845L360 343.72L300.25 313.845V254.155Z" fill="#EDEDF1" stroke="#DCDAE2" stroke-width="0.5"/>
<path d="M420.25 254.155L480 224.28L539.75 254.155V313.845L480 343.72L420.25 313.845V254.155Z" fill="white" stroke="#DCDAE2" stroke-width="0.5"/>
<path d="M540.25 254.155L600 224.28L659.75 254.155V313.845L600 343.72L540.25 313.845V254.155Z" fill="white" stroke="#DCDAE2" stroke-width="0.5"/>
<path d="M660.25 254.155L720 224.28L779.75 254.155V313.845L720 343.72L660.25 313.845V254.155Z" fill="white" stroke="#DCDAE2" stroke-width="0.5"/>
<path d="M780.25 254.155L840 224.28L899.75 254.155V313.845L840 343.72L780.25 313.845V254.155Z" fill="white" stroke="#DCDAE2" stroke-width="0.5"/>
<path d="M900.25 254.155L960 224.28L1019.75 254.155V313.845L960 343.72L900.25 313.845V254.155Z" fill="white" stroke="#DCDAE2" stroke-width="0.5"/>
<path d="M1020.25 254.155L1080 224.28L1139.75 254.155V313.845L1080 343.72L1020.25 313.845V254.155Z" fill="#EDEDF1" stroke="#DCDAE2" stroke-width="0.5"/>
<path d="M1140.25 254.155L1200 224.28L1259.75 254.155V313.845L1200 343.72L1140.25 313.845V254.155Z" fill="white" stroke="#DCDAE2" stroke-width="0.5"/>
<path d="M1260.25 254.155L1320 224.28L1379.75 254.155V313.845L1320 343.72L1260.25 313.845V254.155Z" fill="white" stroke="#DCDAE2" stroke-width="0.5"/>
<path d="M1380.25 254.155L1440 224.28L1499.75 254.155V313.845L1440 343.72L1380.25 313.845V254.155Z" fill="white" stroke="#DCDAE2" stroke-width="0.5"/>
<path d="M0.25 344.155L60 314.28L119.75 344.155V403.845L60 433.72L0.25 403.845V344.155Z" fill="white" stroke="#DCDAE2" stroke-width="0.5"/>
<path d="M120.25 344.155L180 314.28L239.75 344.155V403.845L180 433.72L120.25 403.845V344.155Z" fill="white" stroke="#DCDAE2" stroke-width="0.5"/>
<path d="M240.25 344.155L300 314.28L359.75 344.155V403.845L300 433.72L240.25 403.845V344.155Z" fill="white" stroke="#DCDAE2" stroke-width="0.5"/>
<path d="M360.25 344.155L420 314.28L479.75 344.155V403.845L420 433.72L360.25 403.845V344.155Z" fill="white" stroke="#DCDAE2" stroke-width="0.5"/>
<path d="M480.25 344.155L540 314.28L599.75 344.155V403.845L540 433.72L480.25 403.845V344.155Z" fill="white" stroke="#DCDAE2" stroke-width="0.5"/>
<path d="M600.25 344.155L660 314.28L719.75 344.155V403.845L660 433.72L600.25 403.845V344.155Z" fill="white" stroke="#DCDAE2" stroke-width="0.5"/>
<path d="M720.25 344.155L780 314.28L839.75 344.155V403.845L780 433.72L720.25 403.845V344.155Z" fill="white" stroke="#DCDAE2" stroke-width="0.5"/>
<path d="M840.25 344.155L900 314.28L959.75 344.155V403.845L900 433.72L840.25 403.845V344.155Z" fill="white" stroke="#DCDAE2" stroke-width="0.5"/>
<path d="M960.25 344.155L1020 314.28L1079.75 344.155V403.845L1020 433.72L960.25 403.845V344.155Z" fill="white" stroke="#DCDAE2" stroke-width="0.5"/>
<path d="M1080.25 344.155L1140 314.28L1199.75 344.155V403.845L1140 433.72L1080.25 403.845V344.155Z" fill="white" stroke="#DCDAE2" stroke-width="0.5"/>
<path d="M1200.25 344.155L1260 314.28L1319.75 344.155V403.845L1260 433.72L1200.25 403.845V344.155Z" fill="white" stroke="#DCDAE2" stroke-width="0.5"/>
<path d="M1320.25 344.155L1380 314.28L1439.75 344.155V403.845L1380 433.72L1320.25 403.845V344.155Z" fill="white" stroke="#DCDAE2" stroke-width="0.5"/>
<path d="M-59.75 434.155L0 404.28L59.75 434.155V493.845L0 523.72L-59.75 493.845V434.155Z" fill="white" stroke="#DCDAE2" stroke-width="0.5"/>
<path d="M60.25 434.155L120 404.28L179.75 434.155V493.845L120 523.72L60.25 493.845V434.155Z" fill="white" stroke="#DCDAE2" stroke-width="0.5"/>
<path d="M180.25 434.155L240 404.28L299.75 434.155V493.845L240 523.72L180.25 493.845V434.155Z" fill="white" stroke="#DCDAE2" stroke-width="0.5"/>
<path d="M300.25 434.155L360 404.28L419.75 434.155V493.845L360 523.72L300.25 493.845V434.155Z" fill="white" stroke="#DCDAE2" stroke-width="0.5"/>
<path d="M420.25 434.155L480 404.28L539.75 434.155V493.845L480 523.72L420.25 493.845V434.155Z" fill="white" stroke="#DCDAE2" stroke-width="0.5"/>
<path d="M540.25 434.155L600 404.28L659.75 434.155V493.845L600 523.72L540.25 493.845V434.155Z" fill="white" stroke="#DCDAE2" stroke-width="0.5"/>
<path d="M660.25 434.155L720 404.28L779.75 434.155V493.845L720 523.72L660.25 493.845V434.155Z" fill="white" stroke="#DCDAE2" stroke-width="0.5"/>
<path d="M780.25 434.155L840 404.28L899.75 434.155V493.845L840 523.72L780.25 493.845V434.155Z" fill="white" stroke="#DCDAE2" stroke-width="0.5"/>
<path d="M900.25 434.155L960 404.28L1019.75 434.155V493.845L960 523.72L900.25 493.845V434.155Z" fill="white" stroke="#DCDAE2" stroke-width="0.5"/>
<path d="M1020.25 434.155L1080 404.28L1139.75 434.155V493.845L1080 523.72L1020.25 493.845V434.155Z" fill="white" stroke="#DCDAE2" stroke-width="0.5"/>
<path d="M1140.25 434.155L1200 404.28L1259.75 434.155V493.845L1200 523.72L1140.25 493.845V434.155Z" fill="white" stroke="#DCDAE2" stroke-width="0.5"/>
<path d="M1260.25 434.155L1320 404.28L1379.75 434.155V493.845L1320 523.72L1260.25 493.845V434.155Z" fill="white" stroke="#DCDAE2" stroke-width="0.5"/>
<path d="M1380.25 434.155L1440 404.28L1499.75 434.155V493.845L1440 523.72L1380.25 493.845V434.155Z" fill="white" stroke="#DCDAE2" stroke-width="0.5"/>
<path d="M0.25 524.155L60 494.28L119.75 524.155V583.845L60 613.72L0.25 583.845V524.155Z" fill="white" stroke="#DCDAE2" stroke-width="0.5"/>
<path d="M120.25 524.155L180 494.28L239.75 524.155V583.845L180 613.72L120.25 583.845V524.155Z" fill="#EDEDF1" stroke="#DCDAE2" stroke-width="0.5"/>
<path d="M240.25 524.155L300 494.28L359.75 524.155V583.845L300 613.72L240.25 583.845V524.155Z" fill="white" stroke="#DCDAE2" stroke-width="0.5"/>
<path d="M360.25 524.155L420 494.28L479.75 524.155V583.845L420 613.72L360.25 583.845V524.155Z" fill="white" stroke="#DCDAE2" stroke-width="0.5"/>
<path d="M480.25 524.155L540 494.28L599.75 524.155V583.845L540 613.72L480.25 583.845V524.155Z" fill="white" stroke="#DCDAE2" stroke-width="0.5"/>
<path d="M600.25 524.155L660 494.28L719.75 524.155V583.845L660 613.72L600.25 583.845V524.155Z" fill="white" stroke="#DCDAE2" stroke-width="0.5"/>
<path d="M720.25 524.155L780 494.28L839.75 524.155V583.845L780 613.72L720.25 583.845V524.155Z" fill="white" stroke="#DCDAE2" stroke-width="0.5"/>
<path d="M840.25 524.155L900 494.28L959.75 524.155V583.845L900 613.72L840.25 583.845V524.155Z" fill="white" stroke="#DCDAE2" stroke-width="0.5"/>
<path d="M960.25 524.155L1020 494.28L1079.75 524.155V583.845L1020 613.72L960.25 583.845V524.155Z" fill="white" stroke="#DCDAE2" stroke-width="0.5"/>
<path d="M1080.25 524.155L1140 494.28L1199.75 524.155V583.845L1140 613.72L1080.25 583.845V524.155Z" fill="white" stroke="#DCDAE2" stroke-width="0.5"/>
<path d="M1200.25 524.155L1260 494.28L1319.75 524.155V583.845L1260 613.72L1200.25 583.845V524.155Z" fill="#EDEDF1" stroke="#DCDAE2" stroke-width="0.5"/>
<path d="M1320.25 524.155L1380 494.28L1439.75 524.155V583.845L1380 613.72L1320.25 583.845V524.155Z" fill="white" stroke="#DCDAE2" stroke-width="0.5"/>
<path d="M-59.75 614.155L0 584.28L59.75 614.155V673.845L0 703.72L-59.75 673.845V614.155Z" fill="white" stroke="#DCDAE2" stroke-width="0.5"/>
<path d="M60.25 614.155L120 584.28L179.75 614.155V673.845L120 703.72L60.25 673.845V614.155Z" fill="white" stroke="#DCDAE2" stroke-width="0.5"/>
<path d="M180.25 614.155L240 584.28L299.75 614.155V673.845L240 703.72L180.25 673.845V614.155Z" fill="white" stroke="#DCDAE2" stroke-width="0.5"/>
<path d="M300.25 614.155L360 584.28L419.75 614.155V673.845L360 703.72L300.25 673.845V614.155Z" fill="white" stroke="#DCDAE2" stroke-width="0.5"/>
<path d="M420.25 614.155L480 584.28L539.75 614.155V673.845L480 703.72L420.25 673.845V614.155Z" fill="white" stroke="#DCDAE2" stroke-width="0.5"/>
<path d="M540.25 614.155L600 584.28L659.75 614.155V673.845L600 703.72L540.25 673.845V614.155Z" fill="white" stroke="#DCDAE2" stroke-width="0.5"/>
<path d="M660.25 614.155L720 584.28L779.75 614.155V673.845L720 703.72L660.25 673.845V614.155Z" fill="white" stroke="#DCDAE2" stroke-width="0.5"/>
<path d="M780.25 614.155L840 584.28L899.75 614.155V673.845L840 703.72L780.25 673.845V614.155Z" fill="white" stroke="#DCDAE2" stroke-width="0.5"/>
<path d="M900.25 614.155L960 584.28L1019.75 614.155V673.845L960 703.72L900.25 673.845V614.155Z" fill="white" stroke="#DCDAE2" stroke-width="0.5"/>
<path d="M1020.25 614.155L1080 584.28L1139.75 614.155V673.845L1080 703.72L1020.25 673.845V614.155Z" fill="white" stroke="#DCDAE2" stroke-width="0.5"/>
<path d="M1140.25 614.155L1200 584.28L1259.75 614.155V673.845L1200 703.72L1140.25 673.845V614.155Z" fill="white" stroke="#DCDAE2" stroke-width="0.5"/>
<path d="M1260.25 614.155L1320 584.28L1379.75 614.155V673.845L1320 703.72L1260.25 673.845V614.155Z" fill="white" stroke="#DCDAE2" stroke-width="0.5"/>
<path d="M1380.25 614.155L1440 584.28L1499.75 614.155V673.845L1440 703.72L1380.25 673.845V614.155Z" fill="white" stroke="#DCDAE2" stroke-width="0.5"/>
<path d="M0.25 704.155L60 674.28L119.75 704.155V763.845L60 793.72L0.25 763.845V704.155Z" fill="white" stroke="#DCDAE2" stroke-width="0.5"/>
<path d="M120.25 704.155L180 674.28L239.75 704.155V763.845L180 793.72L120.25 763.845V704.155Z" fill="white" stroke="#DCDAE2" stroke-width="0.5"/>
<path d="M240.25 704.155L300 674.28L359.75 704.155V763.845L300 793.72L240.25 763.845V704.155Z" fill="#EDEDF1" stroke="#DCDAE2" stroke-width="0.5"/>
<path d="M360.25 704.155L420 674.28L479.75 704.155V763.845L420 793.72L360.25 763.845V704.155Z" fill="white" stroke="#DCDAE2" stroke-width="0.5"/>
<path d="M480.25 704.155L540 674.28L599.75 704.155V763.845L540 793.72L480.25 763.845V704.155Z" fill="white" stroke="#DCDAE2" stroke-width="0.5"/>
<path d="M600.25 704.155L660 674.28L719.75 704.155V763.845L660 793.72L600.25 763.845V704.155Z" fill="white" stroke="#DCDAE2" stroke-width="0.5"/>
<path d="M720.25 704.155L780 674.28L839.75 704.155V763.845L780 793.72L720.25 763.845V704.155Z" fill="white" stroke="#DCDAE2" stroke-width="0.5"/>
<path d="M840.25 704.155L900 674.28L959.75 704.155V763.845L900 793.72L840.25 763.845V704.155Z" fill="white" stroke="#DCDAE2" stroke-width="0.5"/>
<path d="M960.25 704.155L1020 674.28L1079.75 704.155V763.845L1020 793.72L960.25 763.845V704.155Z" fill="white" stroke="#DCDAE2" stroke-width="0.5"/>
<path d="M1080.25 704.155L1140 674.28L1199.75 704.155V763.845L1140 793.72L1080.25 763.845V704.155Z" fill="#EDEDF1" stroke="#DCDAE2" stroke-width="0.5"/>
<path d="M1200.25 704.155L1260 674.28L1319.75 704.155V763.845L1260 793.72L1200.25 763.845V704.155Z" fill="white" stroke="#DCDAE2" stroke-width="0.5"/>
<path d="M1320.25 704.155L1380 674.28L1439.75 704.155V763.845L1380 793.72L1320.25 763.845V704.155Z" fill="white" stroke="#DCDAE2" stroke-width="0.5"/>
<path d="M-59.75 794.155L0 764.28L59.75 794.155V853.845L0 883.72L-59.75 853.845V794.155Z" fill="white" stroke="#DCDAE2" stroke-width="0.5"/>
<path d="M60.25 794.155L120 764.28L179.75 794.155V853.845L120 883.72L60.25 853.845V794.155Z" fill="white" stroke="#DCDAE2" stroke-width="0.5"/>
<path d="M180.25 794.155L240 764.28L299.75 794.155V853.845L240 883.72L180.25 853.845V794.155Z" fill="white" stroke="#DCDAE2" stroke-width="0.5"/>
<path d="M300.25 794.155L360 764.28L419.75 794.155V853.845L360 883.72L300.25 853.845V794.155Z" fill="white" stroke="#DCDAE2" stroke-width="0.5"/>
<path d="M420.25 794.155L480 764.28L539.75 794.155V853.845L480 883.72L420.25 853.845V794.155Z" fill="white" stroke="#DCDAE2" stroke-width="0.5"/>
<path d="M540.25 794.155L600 764.28L659.75 794.155V853.845L600 883.72L540.25 853.845V794.155Z" fill="white" stroke="#DCDAE2" stroke-width="0.5"/>
<path d="M660.25 794.155L720 764.28L779.75 794.155V853.845L720 883.72L660.25 853.845V794.155Z" fill="white" stroke="#DCDAE2" stroke-width="0.5"/>
<path d="M780.25 794.155L840 764.28L899.75 794.155V853.845L840 883.72L780.25 853.845V794.155Z" fill="white" stroke="#DCDAE2" stroke-width="0.5"/>
<path d="M900.25 794.155L960 764.28L1019.75 794.155V853.845L960 883.72L900.25 853.845V794.155Z" fill="white" stroke="#DCDAE2" stroke-width="0.5"/>
<path d="M1020.25 794.155L1080 764.28L1139.75 794.155V853.845L1080 883.72L1020.25 853.845V794.155Z" fill="white" stroke="#DCDAE2" stroke-width="0.5"/>
<path d="M1140.25 794.155L1200 764.28L1259.75 794.155V853.845L1200 883.72L1140.25 853.845V794.155Z" fill="white" stroke="#DCDAE2" stroke-width="0.5"/>
<path d="M1260.25 794.155L1320 764.28L1379.75 794.155V853.845L1320 883.72L1260.25 853.845V794.155Z" fill="white" stroke="#DCDAE2" stroke-width="0.5"/>
<path d="M1380.25 794.155L1440 764.28L1499.75 794.155V853.845L1440 883.72L1380.25 853.845V794.155Z" fill="white" stroke="#DCDAE2" stroke-width="0.5"/>
<path d="M0.25 884.155L60 854.28L119.75 884.155V943.845L60 973.72L0.25 943.845V884.155Z" fill="white" stroke="#DCDAE2" stroke-width="0.5"/>
<path d="M120.25 884.155L180 854.28L239.75 884.155V943.845L180 973.72L120.25 943.845V884.155Z" fill="white" stroke="#DCDAE2" stroke-width="0.5"/>
<path d="M240.25 884.155L300 854.28L359.75 884.155V943.845L300 973.72L240.25 943.845V884.155Z" fill="white" stroke="#DCDAE2" stroke-width="0.5"/>
<path d="M360.25 884.155L420 854.28L479.75 884.155V943.845L420 973.72L360.25 943.845V884.155Z" fill="white" stroke="#DCDAE2" stroke-width="0.5"/>
<path d="M480.25 884.155L540 854.28L599.75 884.155V943.845L540 973.72L480.25 943.845V884.155Z" fill="white" stroke="#DCDAE2" stroke-width="0.5"/>
<path d="M600.25 884.155L660 854.28L719.75 884.155V943.845L660 973.72L600.25 943.845V884.155Z" fill="white" stroke="#DCDAE2" stroke-width="0.5"/>
<path d="M720.25 884.155L780 854.28L839.75 884.155V943.845L780 973.72L720.25 943.845V884.155Z" fill="white" stroke="#DCDAE2" stroke-width="0.5"/>
<path d="M840.25 884.155L900 854.28L959.75 884.155V943.845L900 973.72L840.25 943.845V884.155Z" fill="white" stroke="#DCDAE2" stroke-width="0.5"/>
<path d="M960.25 884.155L1020 854.28L1079.75 884.155V943.845L1020 973.72L960.25 943.845V884.155Z" fill="white" stroke="#DCDAE2" stroke-width="0.5"/>
<path d="M1080.25 884.155L1140 854.28L1199.75 884.155V943.845L1140 973.72L1080.25 943.845V884.155Z" fill="white" stroke="#DCDAE2" stroke-width="0.5"/>
<path d="M1200.25 884.155L1260 854.28L1319.75 884.155V943.845L1260 973.72L1200.25 943.845V884.155Z" fill="white" stroke="#DCDAE2" stroke-width="0.5"/>
<path d="M1320.25 884.155L1380 854.28L1439.75 884.155V943.845L1380 973.72L1320.25 943.845V884.155Z" fill="white" stroke="#DCDAE2" stroke-width="0.5"/>
<path d="M-59.75 974.155L0 944.28L59.75 974.155V1033.85L0 1063.72L-59.75 1033.85V974.155Z" fill="white" stroke="#DCDAE2" stroke-width="0.5"/>
<path d="M60.25 974.155L120 944.28L179.75 974.155V1033.85L120 1063.72L60.25 1033.85V974.155Z" fill="white" stroke="#DCDAE2" stroke-width="0.5"/>
<path d="M180.25 974.155L240 944.28L299.75 974.155V1033.85L240 1063.72L180.25 1033.85V974.155Z" fill="#EDEDF1" stroke="#DCDAE2" stroke-width="0.5"/>
<path d="M300.25 974.155L360 944.28L419.75 974.155V1033.85L360 1063.72L300.25 1033.85V974.155Z" fill="white" stroke="#DCDAE2" stroke-width="0.5"/>
<path d="M420.25 974.155L480 944.28L539.75 974.155V1033.85L480 1063.72L420.25 1033.85V974.155Z" fill="white" stroke="#DCDAE2" stroke-width="0.5"/>
<path d="M540.25 974.155L600 944.28L659.75 974.155V1033.85L600 1063.72L540.25 1033.85V974.155Z" fill="white" stroke="#DCDAE2" stroke-width="0.5"/>
<path d="M660.25 974.155L720 944.28L779.75 974.155V1033.85L720 1063.72L660.25 1033.85V974.155Z" fill="white" stroke="#DCDAE2" stroke-width="0.5"/>
<path d="M780.25 974.155L840 944.28L899.75 974.155V1033.85L840 1063.72L780.25 1033.85V974.155Z" fill="white" stroke="#DCDAE2" stroke-width="0.5"/>
<path d="M900.25 974.155L960 944.28L1019.75 974.155V1033.85L960 1063.72L900.25 1033.85V974.155Z" fill="white" stroke="#DCDAE2" stroke-width="0.5"/>
<path d="M1020.25 974.155L1080 944.28L1139.75 974.155V1033.85L1080 1063.72L1020.25 1033.85V974.155Z" fill="white" stroke="#DCDAE2" stroke-width="0.5"/>
<path d="M1140.25 974.155L1200 944.28L1259.75 974.155V1033.85L1200 1063.72L1140.25 1033.85V974.155Z" fill="#EDEDF1" stroke="#DCDAE2" stroke-width="0.5"/>
<path d="M1260.25 974.155L1320 944.28L1379.75 974.155V1033.85L1320 1063.72L1260.25 1033.85V974.155Z" fill="white" stroke="#DCDAE2" stroke-width="0.5"/>
<path d="M1380.25 974.155L1440 944.28L1499.75 974.155V1033.85L1440 1063.72L1380.25 1033.85V974.155Z" fill="white" stroke="#DCDAE2" stroke-width="0.5"/>
<path d="M0.25 1064.15L60 1034.28L119.75 1064.15V1123.85L60 1153.72L0.25 1123.85V1064.15Z" fill="white" stroke="#DCDAE2" stroke-width="0.5"/>
<path d="M120.25 1064.15L180 1034.28L239.75 1064.15V1123.85L180 1153.72L120.25 1123.85V1064.15Z" fill="white" stroke="#DCDAE2" stroke-width="0.5"/>
<path d="M240.25 1064.15L300 1034.28L359.75 1064.15V1123.85L300 1153.72L240.25 1123.85V1064.15Z" fill="white" stroke="#DCDAE2" stroke-width="0.5"/>
<path d="M360.25 1064.15L420 1034.28L479.75 1064.15V1123.85L420 1153.72L360.25 1123.85V1064.15Z" fill="white" stroke="#DCDAE2" stroke-width="0.5"/>
<path d="M480.25 1064.15L540 1034.28L599.75 1064.15V1123.85L540 1153.72L480.25 1123.85V1064.15Z" fill="white" stroke="#DCDAE2" stroke-width="0.5"/>
<path d="M600.25 1064.15L660 1034.28L719.75 1064.15V1123.85L660 1153.72L600.25 1123.85V1064.15Z" fill="white" stroke="#DCDAE2" stroke-width="0.5"/>
<path d="M720.25 1064.15L780 1034.28L839.75 1064.15V1123.85L780 1153.72L720.25 1123.85V1064.15Z" fill="white" stroke="#DCDAE2" stroke-width="0.5"/>
<path d="M840.25 1064.15L900 1034.28L959.75 1064.15V1123.85L900 1153.72L840.25 1123.85V1064.15Z" fill="white" stroke="#DCDAE2" stroke-width="0.5"/>
<path d="M960.25 1064.15L1020 1034.28L1079.75 1064.15V1123.85L1020 1153.72L960.25 1123.85V1064.15Z" fill="white" stroke="#DCDAE2" stroke-width="0.5"/>
<path d="M1080.25 1064.15L1140 1034.28L1199.75 1064.15V1123.85L1140 1153.72L1080.25 1123.85V1064.15Z" fill="white" stroke="#DCDAE2" stroke-width="0.5"/>
<path d="M1200.25 1064.15L1260 1034.28L1319.75 1064.15V1123.85L1260 1153.72L1200.25 1123.85V1064.15Z" fill="white" stroke="#DCDAE2" stroke-width="0.5"/>
<path d="M1320.25 1064.15L1380 1034.28L1439.75 1064.15V1123.85L1380 1153.72L1320.25 1123.85V1064.15Z" fill="white" stroke="#DCDAE2" stroke-width="0.5"/>
<path d="M-59.75 1154.15L0 1124.28L59.75 1154.15V1213.85L0 1243.72L-59.75 1213.85V1154.15Z" fill="white" stroke="#DCDAE2" stroke-width="0.5"/>
<path d="M60.25 1154.15L120 1124.28L179.75 1154.15V1213.85L120 1243.72L60.25 1213.85V1154.15Z" fill="white" stroke="#DCDAE2" stroke-width="0.5"/>
<path d="M180.25 1154.15L240 1124.28L299.75 1154.15V1213.85L240 1243.72L180.25 1213.85V1154.15Z" fill="white" stroke="#DCDAE2" stroke-width="0.5"/>
<path d="M300.25 1154.15L360 1124.28L419.75 1154.15V1213.85L360 1243.72L300.25 1213.85V1154.15Z" fill="white" stroke="#DCDAE2" stroke-width="0.5"/>
<path d="M420.25 1154.15L480 1124.28L539.75 1154.15V1213.85L480 1243.72L420.25 1213.85V1154.15Z" fill="white" stroke="#DCDAE2" stroke-width="0.5"/>
<path d="M540.25 1154.15L600 1124.28L659.75 1154.15V1213.85L600 1243.72L540.25 1213.85V1154.15Z" fill="white" stroke="#DCDAE2" stroke-width="0.5"/>
<path d="M660.25 1154.15L720 1124.28L779.75 1154.15V1213.85L720 1243.72L660.25 1213.85V1154.15Z" fill="white" stroke="#DCDAE2" stroke-width="0.5"/>
<path d="M780.25 1154.15L840 1124.28L899.75 1154.15V1213.85L840 1243.72L780.25 1213.85V1154.15Z" fill="white" stroke="#DCDAE2" stroke-width="0.5"/>
<path d="M900.25 1154.15L960 1124.28L1019.75 1154.15V1213.85L960 1243.72L900.25 1213.85V1154.15Z" fill="white" stroke="#DCDAE2" stroke-width="0.5"/>
<path d="M1020.25 1154.15L1080 1124.28L1139.75 1154.15V1213.85L1080 1243.72L1020.25 1213.85V1154.15Z" fill="white" stroke="#DCDAE2" stroke-width="0.5"/>
<path d="M1140.25 1154.15L1200 1124.28L1259.75 1154.15V1213.85L1200 1243.72L1140.25 1213.85V1154.15Z" fill="white" stroke="#DCDAE2" stroke-width="0.5"/>
<path d="M1260.25 1154.15L1320 1124.28L1379.75 1154.15V1213.85L1320 1243.72L1260.25 1213.85V1154.15Z" fill="white" stroke="#DCDAE2" stroke-width="0.5"/>
<path d="M1380.25 1154.15L1440 1124.28L1499.75 1154.15V1213.85L1440 1243.72L1380.25 1213.85V1154.15Z" fill="white" stroke="#DCDAE2" stroke-width="0.5"/>
<path d="M0.25 1244.15L60 1214.28L119.75 1244.15V1303.85L60 1333.72L0.25 1303.85V1244.15Z" fill="white" stroke="#DCDAE2" stroke-width="0.5"/>
<path d="M120.25 1244.15L180 1214.28L239.75 1244.15V1303.85L180 1333.72L120.25 1303.85V1244.15Z" fill="white" stroke="#DCDAE2" stroke-width="0.5"/>
<path d="M240.25 1244.15L300 1214.28L359.75 1244.15V1303.85L300 1333.72L240.25 1303.85V1244.15Z" fill="white" stroke="#DCDAE2" stroke-width="0.5"/>
<path d="M360.25 1244.15L420 1214.28L479.75 1244.15V1303.85L420 1333.72L360.25 1303.85V1244.15Z" fill="white" stroke="#DCDAE2" stroke-width="0.5"/>
<path d="M480.25 1244.15L540 1214.28L599.75 1244.15V1303.85L540 1333.72L480.25 1303.85V1244.15Z" fill="white" stroke="#DCDAE2" stroke-width="0.5"/>
<path d="M600.25 1244.15L660 1214.28L719.75 1244.15V1303.85L660 1333.72L600.25 1303.85V1244.15Z" fill="white" stroke="#DCDAE2" stroke-width="0.5"/>
<path d="M720.25 1244.15L780 1214.28L839.75 1244.15V1303.85L780 1333.72L720.25 1303.85V1244.15Z" fill="white" stroke="#DCDAE2" stroke-width="0.5"/>
<path d="M840.25 1244.15L900 1214.28L959.75 1244.15V1303.85L900 1333.72L840.25 1303.85V1244.15Z" fill="white" stroke="#DCDAE2" stroke-width="0.5"/>
<path d="M960.25 1244.15L1020 1214.28L1079.75 1244.15V1303.85L1020 1333.72L960.25 1303.85V1244.15Z" fill="white" stroke="#DCDAE2" stroke-width="0.5"/>
<path d="M1080.25 1244.15L1140 1214.28L1199.75 1244.15V1303.85L1140 1333.72L1080.25 1303.85V1244.15Z" fill="white" stroke="#DCDAE2" stroke-width="0.5"/>
<path d="M1200.25 1244.15L1260 1214.28L1319.75 1244.15V1303.85L1260 1333.72L1200.25 1303.85V1244.15Z" fill="white" stroke="#DCDAE2" stroke-width="0.5"/>
<path d="M1320.25 1244.15L1380 1214.28L1439.75 1244.15V1303.85L1380 1333.72L1320.25 1303.85V1244.15Z" fill="white" stroke="#DCDAE2" stroke-width="0.5"/>
<path d="M-59.75 1334.15L0 1304.28L59.75 1334.15V1393.85L0 1423.72L-59.75 1393.85V1334.15Z" fill="white" stroke="#DCDAE2" stroke-width="0.5"/>
<path d="M60.25 1334.15L120 1304.28L179.75 1334.15V1393.85L120 1423.72L60.25 1393.85V1334.15Z" fill="white" stroke="#DCDAE2" stroke-width="0.5"/>
<path d="M180.25 1334.15L240 1304.28L299.75 1334.15V1393.85L240 1423.72L180.25 1393.85V1334.15Z" fill="white" stroke="#DCDAE2" stroke-width="0.5"/>
<path d="M300.25 1334.15L360 1304.28L419.75 1334.15V1393.85L360 1423.72L300.25 1393.85V1334.15Z" fill="white" stroke="#DCDAE2" stroke-width="0.5"/>
<path d="M420.25 1334.15L480 1304.28L539.75 1334.15V1393.85L480 1423.72L420.25 1393.85V1334.15Z" fill="white" stroke="#DCDAE2" stroke-width="0.5"/>
<path d="M540.25 1334.15L600 1304.28L659.75 1334.15V1393.85L600 1423.72L540.25 1393.85V1334.15Z" fill="white" stroke="#DCDAE2" stroke-width="0.5"/>
<path d="M660.25 1334.15L720 1304.28L779.75 1334.15V1393.85L720 1423.72L660.25 1393.85V1334.15Z" fill="white" stroke="#DCDAE2" stroke-width="0.5"/>
<path d="M780.25 1334.15L840 1304.28L899.75 1334.15V1393.85L840 1423.72L780.25 1393.85V1334.15Z" fill="white" stroke="#DCDAE2" stroke-width="0.5"/>
<path d="M900.25 1334.15L960 1304.28L1019.75 1334.15V1393.85L960 1423.72L900.25 1393.85V1334.15Z" fill="white" stroke="#DCDAE2" stroke-width="0.5"/>
<path d="M1020.25 1334.15L1080 1304.28L1139.75 1334.15V1393.85L1080 1423.72L1020.25 1393.85V1334.15Z" fill="white" stroke="#DCDAE2" stroke-width="0.5"/>
<path d="M1140.25 1334.15L1200 1304.28L1259.75 1334.15V1393.85L1200 1423.72L1140.25 1393.85V1334.15Z" fill="white" stroke="#DCDAE2" stroke-width="0.5"/>
<path d="M1260.25 1334.15L1320 1304.28L1379.75 1334.15V1393.85L1320 1423.72L1260.25 1393.85V1334.15Z" fill="white" stroke="#DCDAE2" stroke-width="0.5"/>
<path d="M1380.25 1334.15L1440 1304.28L1499.75 1334.15V1393.85L1440 1423.72L1380.25 1393.85V1334.15Z" fill="white" stroke="#DCDAE2" stroke-width="0.5"/>
</g>
<defs>
<radialGradient id="paint0_radial_4_457" cx="0" cy="0" r="1" gradientUnits="userSpaceOnUse" gradientTransform="translate(720 1440) rotate(-90) scale(1338.5 788.449)">
<stop stop-color="white"/>
<stop offset="0.991144" stop-color="white" stop-opacity="0"/>
</radialGradient>
</defs>
</svg>
